<?xml version="1.0" encoding="utf-8"?>
<!-- Generator: Adobe Illustrator 22.0.1, SVG Export Plug-In . SVG Version: 6.00 Build 0)  -->
<svg version="1.1" id="Layer_1" xmlns="http://www.w3.org/2000/svg" xmlns:xlink="http://www.w3.org/1999/xlink" x="0px" y="0px"
	 width="564.3px" height="109px" viewBox="0 0 564.3 109" style="enable-background:new 0 0 564.3 109;" xml:space="preserve">
<style type="text/css">
	.st0{fill:#394EFF;}
</style>
<g>
	<path id="Shape_39_" class="st0" d="M158.6,78.7l-17.1-48.6h8.9c10.5,30.5,11.9,34.8,13,38.6c1-3.5,2.6-8.2,13.5-38.6h8.9
		l-17.9,48.6H158.6z"/>
	<polygon id="Shape_38_" class="st0" points="194.2,78.7 194.2,30.2 202.5,30.2 202.5,78.7 	"/>
	<path id="Shape_37_" class="st0" d="M299.6,58.3c0,6.6-0.6,10.8-2.4,13.9c-2.8,4.9-8.7,7.6-17.3,7.6c-8.1,0-14.1-2.4-16.9-7.8
		c-1.7-3.1-2.3-7.7-2.3-13.2V30.2h8.3v28.4c0,4,0.3,6.8,1,8.6c1.2,3.1,4.2,5.5,10.3,5.5c5.3,0,8.5-1.8,10.1-5.1
		c0.8-1.7,1.6-4.9,1.6-8.9V30.2h7.6V58.3z"/>
	<path id="Shape_36_" class="st0" d="M310.1,69.4c3.7,1.7,8.5,3.3,14.1,3.3c6.6,0,10-2.4,10-6.7c0-3.3-1.2-5.1-7.6-7.3l-6.8-2.3
		c-7.1-2.4-10.4-6.6-10.4-13.5c0-7.4,5.8-13.9,18.3-13.9c4.9,0,9.7,0.8,13.6,2.2l-1.8,6.9c-4-1.3-8.8-2.2-12.8-2.2
		c-6.7,0-8.6,3.5-8.6,6.4c0,2.9,0.9,4.9,6.5,6.7l6.8,2.4c8.3,2.8,11.2,7.2,11.2,13.5c0,7.7-5.3,14.6-18.4,14.6
		c-6.1,0-12-1.4-16.2-3.4L310.1,69.4z"/>
	<polygon id="Shape_35_" class="st0" points="365.5,78.7 365.5,37.8 351,37.8 351,30.2 388.4,30.2 388.4,37.8 373.9,37.8 
		373.9,78.7 	"/>
	<polygon id="Shape-Copy_3_" class="st0" points="452.2,78.7 452.2,37.8 437.7,37.8 437.7,30.2 475.1,30.2 475.1,37.8 460.6,37.8 
		460.6,78.7 	"/>
	<path id="Shape_34_" class="st0" d="M412,79.7c-14.1,0-23-11.8-23-25.8c0-15.4,9-24.8,24.2-24.8c14.6,0,22.2,11.3,22.3,24.8
		C435.6,67.8,426.8,79.7,412,79.7z M412.6,36.1c-9.6,0-14.8,6-14.8,17.9c0,14.5,6.3,18.7,14.6,18.7c8.6,0,14.4-5.3,14.4-18.3
		C427,42.9,423.7,36.1,412.6,36.1z"/>
	<path id="Shape_33_" class="st0" d="M473.4,78.7l18.7-48.6h9.6l18.2,48.6h-8.9L506.1,66h-18.9l-5,12.8H473.4z M503.9,58.9
		c-4.5-12.5-6-16.5-7-19.9c-1.1,3.3-2.4,7.1-7.4,19.9H503.9z"/>
	<polygon id="Shape_32_" class="st0" points="527.9,78.7 527.9,30.2 536.9,30.2 536.9,71.4 561.1,71.1 561.2,78.7 	"/>
	<path id="Shape_31_" class="st0" d="M0,5.9l48.7,48.6L0,103h107.5V5.9H0z M97.1,92.6H24.5l38.4-38.1L24.5,16.3h72.6V92.6z"/>
	<g id="Shape_30_" transform="translate(311.000000, 35.000000)">
		<path class="st0" d="M-70.2,22.7c7.2-2.4,10-7.5,10-13.7c0-6.7-3.5-10.9-8.6-12.5c-3-0.9-7.3-1.3-11.5-1.3h-6.8h-8.2v48.6h8.3
			L-87,23.9l2.8-0.2c3.7,0,5.5,0.4,6.3,0.3L-67,43.7h9.2L-70.2,22.7z M-72.4,16.1c-2,1.1-4.9,1.4-8.4,1.4H-87V2.1h6.3
			c3.3,0,5.8,0.1,7.7,0.8c2.6,1,4,3.3,4,6.6C-69.1,12.5-70.2,14.9-72.4,16.1z"/>
	</g>
</g>
</svg>
