<?xml version="1.0" encoding="UTF-8" standalone="no"?>
<!-- Page 1 -->
<svg id="svg3398" xmlns:rdf="http://www.w3.org/1999/02/22-rdf-syntax-ns#" xmlns="http://www.w3.org/2000/svg" viewBox="0 0 809.37835 809.54046" display="block" height="809.54" width="809.38" version="1.1" y="0" x="0" xmlns:cc="http://creativecommons.org/ns#" xmlns:dc="http://purl.org/dc/elements/1.1/">
 <metadata id="metadata3420">
  <rdf:RDF>
   <cc:Work rdf:about="">
    <dc:format>image/svg+xml</dc:format>
    <dc:type rdf:resource="http://purl.org/dc/dcmitype/StillImage"/>
    <dc:title/>
   </cc:Work>
  </rdf:RDF>
 </metadata>
 <defs id="defs3400">
  <style id="style3402" type="text/css"><![CDATA[
.g1_1{
fill: #333333;
}
.g2_1{
fill: #EE751B;
}
]]></style>
 </defs>
 <g id="g5671" fill-rule="evenodd" transform="translate(38.677 38.94)">
  <g stroke="#fff" stroke-width="20" fill="#333">
   <path id="path3406" d="m363.63-28.92c64.703-0.04943 129.41 0.02732 194.11 0.52337 32.824 1.5497 66.344-2.7118 98.744 4.7035 53.459 12.332 93.8 61.265 101.97 114.62 4.2154 44.445 1.3358 89.197 2.059 133.77-18.98-10.319-37.184-21.981-55.228-33.839-6.2238-4.9703-13.32-8.0235-19.612-12.862-5.3282-4.31-2.7494-11.199-2.043-16.869 3.15-31.27-13.35-63.215-40.9-78.644-32.67-19.218-78.15-10.543-101.96 18.984-21.384 25.39-25.512 64.023-8.082 92.549 3.5664 4.861 6.9339 11.394 3.1367 17.143-28.29 44.046-56.918 87.949-86.301 131.3-30.41-11.989-63.427-19.129-95.994-17.078-52.861 2.8325-100.93 33.618-134.06 73.709-1.3718 4.7961-8.1696 3.4463-9.707-0.50586-0.87203-6.0818 1.143-12.57 0.33983-18.835-0.86738-36.151-29.116-69.238-64.367-76.821-32.767-7.8608-68.242 8.825-85.703 37.075-12.655 19.306-15.514 43.802-8.2009 65.452 2.7308 5.2988 3.0292 12.089-1.4453 16.555-26.259 24.591-51.492 50.374-78.609 74.094-0.4999-105.68-0.47014-211.37-0.2863-317.06 1.3905-34.6-3.5144-69.9 4.8914-103.91 12.483-53.217 59.953-96.031 114.22-102.74 90.986-1.7989 182.03-0.72279 273.03-1.3135z"/>
   <path id="path3408" d="m617.29 760.38c15.72-18.842 21.641-38.761 16.796-61.586-3.8761-18.196-16.043-30.793-28.747-42.96-21.534-20.78-43.067-41.452-64.709-62.017-3.4454-3.3377-4.3067-5.8141-2.3687-10.552 31.008-76.337 14.428-152.89-45.113-210.06-1.0767-0.96901-1.938-1.938-3.3377-3.4454 9.1518-13.997 18.088-27.994 27.24-41.883 19.273-29.609 38.868-58.895 58.033-88.611 3.553-5.4911 7.2138-6.9984 13.459-5.8141 21.318 3.8761 41.56 0.43068 59.325-12.382 6.0294-4.4144 10.121-3.7684 15.827 0 28.532 18.842 57.172 37.469 85.919 56.095 3.3377 2.261 6.8908 4.0914 10.982 6.4601v11.736c0 110.47-0.43068 220.94 0.10767 331.4 0.21533 42.529-17.981 75.583-49.204 102.18-26.486 22.395-57.495 33.27-94.21 31.439z" class="g1_1"/>
   <path id="path3410" d="m520.92 760.6h-10.982-405.26c-67.723 0-131.25-61.694-132.97-129.63-0.64601-20.565-0.323-41.129-0.10767-61.694 0-2.1534 0.64601-4.8451 2.0457-6.2448 19.38-19.057 38.868-37.899 58.356-56.634 16.904-16.366 33.7-32.839 51.035-48.774 2.261-2.1534 7.8598-2.7994 10.767-1.5074 30.362 13.351 58.572 9.7978 85.058-9.5825 7.3214-5.2758 7.2138-5.3834 14.212-0.10767-2.907 15.074-6.6754 29.609-8.3981 44.467-11.09 101.1 63.094 192.4 164.09 203.06 30.039 3.1224 58.895-1.0767 87.104-11.521 2.6917-0.96902 7.4291-0.75368 9.1518 0.96901 24.979 24.979 49.635 50.281 75.906 77.198z" class="g1_1"/>
  </g>
  <path id="path3412" d="m369.56 342.83c22.6 0.2 44.3 4.4 64.7 13.6 9.4 4.2 17.8 10.5 26.6 16 54.4 34.4 77.1 85.2 75.2 147.9-0.7 21.1-5.1 41.8-16.5 60.3-2.5 4.1-0.5 6.7 2.2 9.2 11.6 10.7 23.3 21.3 34.8 32.1 13.7 12.8 27.5 25.4 40.7 38.7 19.9 20 19.9 57.5 0.9 76.6-24.5 24.6-60.7 24.5-82.5 1.7-23.8-24.8-48.3-49-72.3-73.6-3.3-3.4-5.5-3.7-10.3-1.5-23.7 10.9-49.1 14.9-75.1 12.9-38.2-3-72-17.1-100.5-43.1-30.1-27.4-47.9-61.4-53.5-101.8-3.2-22.5-2.1-44.9 4.9-66.4 4.3-13.1 10.8-25.7 17.3-37.9 30.7-57.1 81.1-81.1 143.4-84.7zm114.2 167.9c-0.1-63.8-51.3-114.5-115.3-114.9-66.6-0.4-114.5 55.6-114.8 115.3-0.2 64.4 51 115.1 115.6 114.9 63.8-0.1 114.5-51.2 114.5-115.3z" fill="#ee751b" class="g2_1"/>
 </g>
</svg>
